<?xml version="1.0" encoding="UTF-8" ?>
<svg version="1.1" width="128" height="128" xmlns="http://www.w3.org/2000/svg" shape-rendering="crispEdges">
<rect x="20" y="16" width="20" height="12" fill="#8EEF97" />
<rect x="84" y="16" width="20" height="12" fill="#8EEF97" />
<rect x="16" y="20" width="4" height="28" fill="#8EEF97" />
<rect x="40" y="20" width="4" height="4" fill="#8EEF97" />
<rect x="80" y="20" width="4" height="4" fill="#8EEF97" />
<rect x="104" y="20" width="4" height="28" fill="#8EEF97" />
<rect x="12" y="24" width="4" height="20" fill="#8EEF97" />
<rect x="108" y="24" width="4" height="20" fill="#8EEF97" />
<rect x="20" y="28" width="8" height="4" fill="#8EEF97" />
<rect x="96" y="28" width="8" height="4" fill="#8EEF97" />
<rect x="20" y="32" width="4" height="12" fill="#8EEF97" />
<rect x="100" y="32" width="4" height="12" fill="#8EEF97" />
<rect x="40" y="52" width="4" height="20" fill="#8EEF97" />
<rect x="60" y="52" width="4" height="20" fill="#8EEF97" />
<rect x="80" y="52" width="4" height="20" fill="#8EEF97" />
<rect x="36" y="56" width="4" height="12" fill="#8EEF97" />
<rect x="44" y="56" width="4" height="12" fill="#8EEF97" />
<rect x="56" y="56" width="4" height="12" fill="#8EEF97" />
<rect x="64" y="56" width="4" height="12" fill="#8EEF97" />
<rect x="76" y="56" width="4" height="12" fill="#8EEF97" />
<rect x="84" y="56" width="4" height="12" fill="#8EEF97" />
<rect x="16" y="80" width="4" height="28" fill="#8EEF97" />
<rect x="104" y="80" width="4" height="28" fill="#8EEF97" />
<rect x="12" y="84" width="4" height="20" fill="#8EEF97" />
<rect x="20" y="84" width="4" height="28" fill="#8EEF97" />
<rect x="100" y="84" width="4" height="28" fill="#8EEF97" />
<rect x="108" y="84" width="4" height="20" fill="#8EEF97" />
<rect x="24" y="96" width="4" height="16" fill="#8EEF97" />
<rect x="96" y="96" width="4" height="16" fill="#8EEF97" />
<rect x="28" y="100" width="12" height="12" fill="#8EEF97" />
<rect x="84" y="100" width="12" height="12" fill="#8EEF97" />
<rect x="40" y="104" width="4" height="4" fill="#8EEF97" />
<rect x="80" y="104" width="4" height="4" fill="#8EEF97" />
</svg>