<?xml version="1.0" encoding="UTF-8" ?>
<svg version="1.1" width="128" height="128" xmlns="http://www.w3.org/2000/svg" shape-rendering="crispEdges">
<rect x="100" y="12" width="4" height="8" fill="#8EEF97" />
<rect x="96" y="16" width="4" height="8" fill="#8EEF97" />
<rect x="104" y="16" width="4" height="16" fill="#8EEF97" />
<rect x="92" y="20" width="4" height="8" fill="#8EEF97" />
<rect x="108" y="20" width="4" height="8" fill="#8EEF97" />
<rect x="88" y="24" width="4" height="8" fill="#8EEF97" />
<rect x="100" y="24" width="4" height="12" fill="#8EEF97" />
<rect x="112" y="24" width="4" height="12" fill="#8EEF97" />
<rect x="84" y="28" width="4" height="8" fill="#8EEF97" />
<rect x="96" y="28" width="4" height="12" fill="#8EEF97" />
<rect x="116" y="28" width="4" height="4" fill="#8EEF97" />
<rect x="80" y="32" width="4" height="8" fill="#8EEF97" />
<rect x="92" y="32" width="4" height="12" fill="#8EEF97" />
<rect x="108" y="32" width="4" height="8" fill="#8EEF97" />
<rect x="76" y="36" width="4" height="8" fill="#8EEF97" />
<rect x="88" y="36" width="4" height="12" fill="#8EEF97" />
<rect x="104" y="36" width="4" height="8" fill="#8EEF97" />
<rect x="84" y="40" width="4" height="12" fill="#8EEF97" />
<rect x="100" y="40" width="4" height="8" fill="#8EEF97" />
<rect x="68" y="44" width="4" height="4" fill="#8EEF97" />
<rect x="80" y="44" width="4" height="4" fill="#8EEF97" />
<rect x="96" y="44" width="4" height="8" fill="#8EEF97" />
<rect x="64" y="48" width="4" height="20" fill="#8EEF97" />
<rect x="72" y="48" width="4" height="4" fill="#8EEF97" />
<rect x="92" y="48" width="4" height="8" fill="#8EEF97" />
<rect x="76" y="52" width="4" height="4" fill="#8EEF97" />
<rect x="88" y="52" width="4" height="4" fill="#8EEF97" />
<rect x="80" y="56" width="4" height="4" fill="#8EEF97" />
<rect x="40" y="60" width="4" height="8" fill="#8EEF97" />
<rect x="68" y="60" width="4" height="8" fill="#8EEF97" />
<rect x="84" y="60" width="4" height="4" fill="#8EEF97" />
<rect x="28" y="64" width="12" height="8" fill="#8EEF97" />
<rect x="44" y="64" width="4" height="4" fill="#8EEF97" />
<rect x="72" y="64" width="12" height="4" fill="#8EEF97" />
<rect x="24" y="68" width="4" height="24" fill="#8EEF97" />
<rect x="48" y="68" width="4" height="16" fill="#8EEF97" />
<rect x="20" y="72" width="4" height="16" fill="#8EEF97" />
<rect x="28" y="72" width="8" height="8" fill="#8EEF97" />
<rect x="40" y="72" width="8" height="12" fill="#8EEF97" />
<rect x="52" y="72" width="4" height="8" fill="#8EEF97" />
<rect x="12" y="76" width="8" height="12" fill="#8EEF97" />
<rect x="56" y="76" width="4" height="44" fill="#8EEF97" />
<rect x="8" y="80" width="4" height="20" fill="#8EEF97" />
<rect x="28" y="80" width="4" height="4" fill="#8EEF97" />
<rect x="36" y="80" width="4" height="24" fill="#8EEF97" />
<rect x="60" y="80" width="4" height="36" fill="#8EEF97" />
<rect x="4" y="84" width="4" height="12" fill="#8EEF97" />
<rect x="32" y="84" width="4" height="16" fill="#8EEF97" />
<rect x="40" y="84" width="4" height="8" fill="#8EEF97" />
<rect x="52" y="84" width="4" height="36" fill="#8EEF97" />
<rect x="64" y="84" width="4" height="28" fill="#8EEF97" />
<rect x="28" y="88" width="4" height="8" fill="#8EEF97" />
<rect x="44" y="88" width="8" height="24" fill="#8EEF97" />
<rect x="68" y="88" width="4" height="20" fill="#8EEF97" />
<rect x="12" y="92" width="12" height="4" fill="#8EEF97" />
<rect x="72" y="92" width="4" height="12" fill="#8EEF97" />
<rect x="12" y="96" width="8" height="4" fill="#8EEF97" />
<rect x="40" y="96" width="4" height="12" fill="#8EEF97" />
<rect x="76" y="96" width="4" height="8" fill="#8EEF97" />
<rect x="36" y="112" width="4" height="8" fill="#8EEF97" />
<rect x="48" y="112" width="4" height="12" fill="#8EEF97" />
<rect x="40" y="116" width="8" height="8" fill="#8EEF97" />
</svg>