<?xml version="1.0" encoding="UTF-8" ?>
<svg version="1.1" width="128" height="128" xmlns="http://www.w3.org/2000/svg" shape-rendering="crispEdges">
<rect x="48" y="24" width="56" height="8" fill="#E0E0E0" />
<rect x="40" y="28" width="8" height="16" fill="#E0E0E0" />
<rect x="104" y="28" width="4" height="4" fill="#E0E0E0" />
<rect x="32" y="32" width="8" height="12" fill="#E0E0E0" />
<rect x="48" y="32" width="52" height="4" fill="#E0E0E0" />
<rect x="24" y="36" width="8" height="8" fill="#E0E0E0" />
<rect x="48" y="36" width="44" height="4" fill="#E0E0E0" />
<rect x="104" y="36" width="8" height="56" fill="#E0E0E0" />
<rect x="16" y="40" width="8" height="4" fill="#E0E0E0" />
<rect x="48" y="40" width="36" height="4" fill="#E0E0E0" />
<rect x="96" y="40" width="8" height="56" fill="#E0E0E0" />
<rect x="72" y="44" width="4" height="4" fill="#E0E0E0" />
<rect x="88" y="44" width="8" height="56" fill="#E0E0E0" />
<rect x="16" y="48" width="52" height="24" fill="#E0E0E0" />
<rect x="80" y="48" width="8" height="56" fill="#E0E0E0" />
<rect x="12" y="52" width="4" height="52" fill="#E0E0E0" />
<rect x="68" y="52" width="4" height="52" fill="#E0E0E0" />
<rect x="76" y="52" width="4" height="56" fill="#E0E0E0" />
<rect x="16" y="72" width="8" height="4" fill="#E0E0E0" />
<rect x="28" y="72" width="12" height="4" fill="#E0E0E0" />
<rect x="44" y="72" width="12" height="4" fill="#E0E0E0" />
<rect x="60" y="72" width="8" height="4" fill="#E0E0E0" />
<rect x="16" y="76" width="4" height="32" fill="#E0E0E0" />
<rect x="32" y="76" width="4" height="32" fill="#E0E0E0" />
<rect x="48" y="76" width="4" height="32" fill="#E0E0E0" />
<rect x="64" y="76" width="4" height="32" fill="#E0E0E0" />
<rect x="20" y="84" width="4" height="24" fill="#E0E0E0" />
<rect x="28" y="84" width="4" height="24" fill="#E0E0E0" />
<rect x="36" y="84" width="4" height="24" fill="#E0E0E0" />
<rect x="44" y="84" width="4" height="24" fill="#E0E0E0" />
<rect x="52" y="84" width="4" height="24" fill="#E0E0E0" />
<rect x="60" y="84" width="4" height="24" fill="#E0E0E0" />
<rect x="24" y="88" width="4" height="20" fill="#E0E0E0" />
<rect x="40" y="88" width="4" height="20" fill="#E0E0E0" />
<rect x="56" y="88" width="4" height="20" fill="#E0E0E0" />
</svg>